<?xml version="1.0" encoding="UTF-8" standalone="no"?>
<!-- Created with Inkscape (http://www.inkscape.org/) -->

<svg
   width="656.21899"
   height="518.9939"
   viewBox="0 0 173.62461 137.31713"
   version="1.1"
   id="svg1"
   xml:space="preserve"
   inkscape:version="1.4.4 (dcaf3e7d9e, 2026-05-05)"
   sodipodi:docname="SR2PatcherLogoFINAL.svg"
   xmlns:inkscape="http://www.inkscape.org/namespaces/inkscape"
   xmlns:sodipodi="http://sodipodi.sourceforge.net/DTD/sodipodi-0.dtd"
   xmlns="http://www.w3.org/2000/svg"
   xmlns:svg="http://www.w3.org/2000/svg"><sodipodi:namedview
     id="namedview1"
     pagecolor="#15c700"
     bordercolor="#000000"
     borderopacity="0.25"
     inkscape:showpageshadow="false"
     inkscape:pageopacity="0.0"
     inkscape:pagecheckerboard="0"
     inkscape:deskcolor="#d1d1d1"
     inkscape:document-units="px"
     showgrid="true"
     inkscape:zoom="0.32"
     inkscape:cx="1579.6875"
     inkscape:cy="550"
     inkscape:window-width="1920"
     inkscape:window-height="1028"
     inkscape:window-x="0"
     inkscape:window-y="24"
     inkscape:window-maximized="1"
     inkscape:current-layer="layer2"
     showguides="true"><inkscape:grid
       id="grid7"
       units="px"
       originx="-357.13568"
       originy="-120.33101"
       spacingx="0.26458333"
       spacingy="0.26458332"
       empcolor="#0099e5"
       empopacity="0.30196078"
       color="#0099e5"
       opacity="0.14901961"
       empspacing="5"
       enabled="true"
       visible="true" /><inkscape:page
       x="0"
       y="0"
       width="173.6246"
       height="137.31712"
       id="page2"
       margin="0"
       bleed="0" /></sodipodi:namedview><defs
     id="defs1"><rect
       x="1309.5618"
       y="0"
       width="1126.4382"
       height="326.23969"
       id="rect4-2" /><rect
       x="1309.5618"
       y="0"
       width="1126.4382"
       height="326.23969"
       id="rect4-2-8" /><filter
       inkscape:collect="always"
       style="color-interpolation-filters:sRGB"
       id="filter1"
       x="-0.039694658"
       y="-0.72223623"
       width="1.0793893"
       height="2.4444725"><feGaussianBlur
         inkscape:collect="always"
         stdDeviation="6.569637"
         id="feGaussianBlur1" /></filter><filter
       inkscape:collect="always"
       style="color-interpolation-filters:sRGB"
       id="filter2"
       x="-0.085909774"
       y="-0.13002035"
       width="1.1718195"
       height="1.2600407"><feGaussianBlur
         inkscape:collect="always"
         stdDeviation="2.4606251"
         id="feGaussianBlur2" /></filter><filter
       inkscape:collect="always"
       style="color-interpolation-filters:sRGB"
       id="filter3"
       x="-0.32322657"
       y="-0.22512771"
       width="1.6464531"
       height="1.4502553"><feGaussianBlur
         inkscape:collect="always"
         stdDeviation="0.8589641"
         id="feGaussianBlur3" /></filter><filter
       inkscape:collect="always"
       style="color-interpolation-filters:sRGB"
       id="filter4"
       x="-0.3540675"
       y="-0.24606221"
       width="1.708135"
       height="1.4921245"><feGaussianBlur
         inkscape:collect="always"
         stdDeviation="0.8589641"
         id="feGaussianBlur4" /></filter><filter
       inkscape:collect="always"
       style="color-interpolation-filters:sRGB"
       id="filter5"
       x="-0.32761757"
       y="-0.25478168"
       width="1.6552351"
       height="1.5095633"><feGaussianBlur
         inkscape:collect="always"
         stdDeviation="0.8589641"
         id="feGaussianBlur5" /></filter><filter
       inkscape:collect="always"
       style="color-interpolation-filters:sRGB"
       id="filter6"
       x="-0.30104008"
       y="-0.25257435"
       width="1.6062909"
       height="1.5051487"><feGaussianBlur
         inkscape:collect="always"
         stdDeviation="0.8589641"
         id="feGaussianBlur6" /></filter><filter
       inkscape:collect="always"
       style="color-interpolation-filters:sRGB"
       id="filter7"
       x="-0.3304227"
       y="-0.26021482"
       width="1.6608454"
       height="1.5204299"><feGaussianBlur
         inkscape:collect="always"
         stdDeviation="0.8589641"
         id="feGaussianBlur7" /></filter><filter
       inkscape:collect="always"
       style="color-interpolation-filters:sRGB"
       id="filter8"
       x="-0.31798221"
       y="-0.24878498"
       width="1.6276124"
       height="1.5054222"><feGaussianBlur
         inkscape:collect="always"
         stdDeviation="0.8589641"
         id="feGaussianBlur8" /></filter><filter
       inkscape:collect="always"
       style="color-interpolation-filters:sRGB"
       id="filter9"
       x="-0.34643917"
       y="-0.22243987"
       width="1.6928783"
       height="1.4677692"><feGaussianBlur
         inkscape:collect="always"
         stdDeviation="0.8589641"
         id="feGaussianBlur9" /></filter></defs><g
     inkscape:groupmode="layer"
     id="layer2"
     inkscape:label="Text"
     style="display:inline"
     transform="translate(-357.13567,-120.33101)"><path
       d="m 411.75704,250.09995 v 3.66888 l -2.11667,0.7704 v -10.28699 l 4.54378,-1.6538 q 1.60866,-0.5855 2.45533,-0.0752 0.86078,0.50515 0.86078,2.05737 0,1.56633 -0.84667,2.80582 -0.84667,1.2395 -2.25778,1.7531 z m 0,-1.76389 1.97555,-0.71904 q 1.651,-0.60092 1.651,-2.13903 0,-0.79022 -0.40922,-1.02227 -0.39511,-0.2372 -1.24178,0.071 l -1.97555,0.71904 z"
       id="text8-3-3-4"
       style="font-weight:600;font-size:53.3333px;font-family:FreeSans;-inkscape-font-specification:'FreeSans Semi-Bold';letter-spacing:1px;white-space:pre;display:inline;fill:#ffffff;fill-opacity:1;stroke:#ffffff;stroke-width:1.32292;stroke-dasharray:none;stroke-opacity:1;paint-order:stroke fill markers;filter:url(#filter9)"
       aria-label="P"
       inkscape:export-filename="Export/SR2PatcherLogo2.png"
       inkscape:export-xdpi="200"
       inkscape:export-ydpi="200" /><path
       d="m 425.17317,248.07501 -3.85233,0.62732 -0.69144,2.18694 -2.159,0.35158 3.65477,-10.88216 2.34245,-0.38145 3.55599,9.70791 -2.17311,0.35389 z m -0.57855,-1.66968 -1.34056,-3.80336 -1.34055,4.23996 z"
       id="text8-3-9-6-4"
       style="font-weight:600;font-size:53.3333px;font-family:FreeSans;-inkscape-font-specification:'FreeSans Semi-Bold';letter-spacing:1px;white-space:pre;display:inline;fill:#ffffff;fill-opacity:1;stroke:#ffffff;stroke-width:1.32292;stroke-dasharray:none;stroke-opacity:1;paint-order:stroke fill markers;filter:url(#filter8)"
       aria-label="A" /><path
       d="m 434.08787,240.27299 v 8.5231 l -2.11667,0.15076 v -8.5231 l -3.11855,0.2221 v -1.76389 l 8.24088,-0.58692 v 1.76389 z"
       id="text8-3-6-1-3"
       style="font-weight:600;font-size:53.3333px;font-family:FreeSans;-inkscape-font-specification:'FreeSans Semi-Bold';letter-spacing:1px;white-space:pre;display:inline;fill:#ffffff;fill-opacity:1;stroke:#ffffff;stroke-width:1.32292;stroke-dasharray:none;stroke-opacity:1;paint-order:stroke fill markers;filter:url(#filter7)"
       aria-label="T" /><path
       d="m 445.33088,241.01561 q -0.39512,-1.84855 -2.20134,-1.84855 -1.25589,0 -1.96144,0.95955 -0.70556,0.95955 -0.70556,2.667 0,1.67922 0.67734,2.62466 0.69144,0.94545 1.91911,0.94545 0.98777,0 1.58044,-0.53623 0.59267,-0.53622 0.69145,-1.52399 h 2.06022 q -0.0988,1.76388 -1.28411,2.8081 -1.18534,1.03011 -3.10445,1.03011 -2.14489,0 -3.40077,-1.43933 -1.25589,-1.45344 -1.25589,-3.93699 0,-2.49767 1.27,-3.95111 1.27,-1.45345 3.44311,-1.45345 1.82033,0 2.97744,0.97367 1.17122,0.97367 1.31233,2.68111 z"
       id="text8-3-92-2-0"
       style="font-weight:600;font-size:53.3333px;font-family:FreeSans;-inkscape-font-specification:'FreeSans Semi-Bold';letter-spacing:1px;white-space:pre;display:inline;fill:#ffffff;fill-opacity:1;stroke:#ffffff;stroke-width:1.32292;stroke-dasharray:none;stroke-opacity:1;paint-order:stroke fill markers;filter:url(#filter6)"
       aria-label="C" /><path
       d="m 455.54379,244.34995 -4.07811,-0.29046 v 4.67077 l -2.11666,-0.15076 v -10.28699 l 2.11666,0.15076 v 3.85233 l 4.064,0.28945 v -3.85233 l 2.13078,0.15177 v 10.28699 l -2.11667,-0.15076 z"
       id="text8-3-69-9-7"
       style="font-weight:600;font-size:53.3333px;font-family:FreeSans;-inkscape-font-specification:'FreeSans Semi-Bold';letter-spacing:1px;white-space:pre;display:inline;fill:#ffffff;fill-opacity:1;stroke:#ffffff;stroke-width:1.32292;stroke-dasharray:none;stroke-opacity:1;paint-order:stroke fill markers;filter:url(#filter5)"
       aria-label="H" /><path
       d="m 462.29949,245.75062 v 2.667 l 5.57389,0.90769 v 1.76388 l -7.69055,-1.25238 v -10.28699 l 7.43655,1.21101 v 1.76389 l -5.31989,-0.86632 v 2.32833 l 4.92478,0.80198 v 1.76389 z"
       id="text8-3-4-3-8"
       style="font-weight:600;font-size:53.3333px;font-family:FreeSans;-inkscape-font-specification:'FreeSans Semi-Bold';letter-spacing:1px;white-space:pre;display:inline;fill:#ffffff;fill-opacity:1;stroke:#ffffff;stroke-width:1.32292;stroke-dasharray:none;stroke-opacity:1;paint-order:stroke fill markers;filter:url(#filter4)"
       aria-label="E" /><path
       d="m 475.65921,251.93305 q 0,-0.42334 0.0141,-0.6581 0.0141,-0.23476 0.0141,-0.4182 0,-0.64911 -0.31044,-1.04432 -0.31045,-0.40933 -1.00189,-0.661 l -2.42711,-0.88339 v 4.07811 l -2.11667,-0.77041 v -10.28699 l 5.51744,2.00819 q 0.79022,0.28761 1.35467,0.76117 0.57855,0.47868 0.86078,1.01886 0.29633,0.54529 0.42333,1.04307 0.127,0.48367 0.127,0.96345 0,1.86266 -1.73567,1.90827 0.381,0.29389 0.56445,0.45944 0.18344,0.15147 0.36689,0.42987 0.19755,0.28357 0.254,0.47345 0.0706,0.19502 0.127,0.66711 0.0705,0.47721 0.0847,0.91983 0.0141,0.44257 0.0282,1.30848 0,0.59266 0.45156,1.01102 v 0.381 l -2.27189,-0.8269 q -0.19755,-0.4388 -0.26811,-0.80314 -0.0564,-0.3592 -0.0564,-1.07886 z m 0.33866,-5.32363 q 0,-0.79022 -0.36689,-1.17776 -0.36688,-0.40164 -1.12888,-0.67898 l -2.55411,-0.92962 v 2.68111 l 2.55411,0.92962 q 0.74789,0.27221 1.11477,0.13763 0.381,-0.12944 0.381,-0.962 z"
       id="text8-3-8-1-6"
       style="font-weight:600;font-size:53.3333px;font-family:FreeSans;-inkscape-font-specification:'FreeSans Semi-Bold';letter-spacing:1px;white-space:pre;display:inline;fill:#ffffff;fill-opacity:1;stroke:#ffffff;stroke-width:1.32292;stroke-dasharray:none;stroke-opacity:1;paint-order:stroke fill markers;filter:url(#filter3)"
       aria-label="R" /><path
       id="rect7-3-5-3"
       style="display:inline;fill:none;stroke:#ffffff;stroke-width:13.6459;stroke-dasharray:none;stroke-opacity:1;paint-order:stroke fill markers;filter:url(#filter2)"
       d="m 377.80216,141.02884 h 132.29168 c 4.39737,0 7.9375,3.54013 7.9375,7.9375 l -2e-5,78.05208 c 0,0 0,11.90625 -11.90625,11.90625 -6.61458,0 -35.71874,-11.90625 -62.17707,-11.90625 -26.45834,0 -55.5625,11.90625 -62.17708,11.90625 -11.90625,0 -11.90625,-11.90625 -11.90625,-11.90625 l -10e-6,-78.05208 c 0,-4.39737 3.54013,-7.9375 7.9375,-7.9375 z"
       sodipodi:nodetypes="ssscccccss" /><path
       id="rect7-3-5"
       style="display:inline;fill:none;stroke:#df312c;stroke-width:11.0001;stroke-dasharray:none;stroke-opacity:1;paint-order:stroke fill markers"
       d="m 377.80216,141.02884 h 132.29168 c 4.39737,0 7.9375,3.54013 7.9375,7.9375 l -2e-5,78.05208 c 0,0 0,11.90625 -11.90625,11.90625 -6.61458,0 -35.71874,-11.90625 -62.17707,-11.90625 -26.45834,0 -55.5625,11.90625 -62.17708,11.90625 -11.90625,0 -11.90625,-11.90625 -11.90625,-11.90625 l -10e-6,-78.05208 c 0,-4.39737 3.54013,-7.9375 7.9375,-7.9375 z"
       sodipodi:nodetypes="ssscccccss" /><path
       id="rect7-9"
       style="display:inline;fill:#df312c;stroke:#ffffff;stroke-width:3.00011;stroke-dasharray:none;stroke-opacity:1;paint-order:stroke fill markers"
       d="m 377.80216,141.02884 h 132.29168 c 4.39737,0 7.9375,3.54013 7.9375,7.9375 l -2e-5,78.05208 c 0,0 0,11.90625 -11.90625,11.90625 -6.61458,0 -35.71874,-11.90625 -62.17707,-11.90625 -26.45834,0 -55.5625,11.90625 -62.17708,11.90625 -11.90625,0 -11.90625,-11.90625 -11.90625,-11.90625 l -10e-6,-78.05208 c 0,-4.39737 3.54013,-7.9375 7.9375,-7.9375 z"
       sodipodi:nodetypes="ssscccccss" /><path
       d="m 512.68833,175.4109 q 0,6.61822 -2.26392,11.62552 -2.17684,5.0218 -5.57272,8.15799 -3.39587,3.02402 -6.96589,5.57034 -3.57003,2.43415 -6.87882,5.58485 -3.3088,3.03853 -4.70199,6.6204 l 26.12211,4.3502 v 14.02166 l -41.96952,-6.98933 q 0.43538,-10.92046 3.39588,-16.82132 3.04758,-5.99853 10.88421,-11.76039 10.18763,-7.50162 12.97399,-11.41236 2.78634,-4.02292 2.78634,-10.64114 0,-5.94519 -2.35098,-9.7019 -2.26391,-3.85439 -6.35638,-4.53592 -4.17954,-0.69603 -6.53053,2.61417 -2.26391,3.3247 -2.26391,9.94293 v 2.57998 l -11.66787,-1.94309 q -0.087,-1.2484 -0.087,-2.81882 0,-12.56341 5.3115,-18.63361 5.39857,-6.16788 14.97667,-4.57281 9.75226,1.62408 15.41205,9.4092 5.74686,7.79961 5.74686,19.35346 z"
       id="text1-0-2"
       style="font-weight:600;font-size:266.667px;font-family:FreeSans;-inkscape-font-specification:'FreeSans Semi-Bold';letter-spacing:0px;white-space:pre;display:inline;fill:#ffffff;fill-opacity:1;stroke-width:3.335;stroke-dasharray:none;paint-order:stroke fill markers"
       aria-label="2" /><path
       d="m 452.04602,208.79702 q 0,-3.10314 0.0707,-4.86158 0.0707,-1.75845 0.0707,-3.10313 0,-4.75815 -1.55594,-6.82691 -1.55595,-2.1722 -5.02146,-2.1722 h -12.16464 v 29.89356 h -10.6087 v -75.40625 h 27.65335 q 3.96058,0 6.78957,1.96532 2.89971,1.96532 4.3142,5.1719 1.48522,3.20658 2.12174,6.51659 0.63652,3.20657 0.63652,6.72346 0,13.65381 -8.69913,18.61884 1.90956,1.13781 2.82898,1.86188 0.91943,0.62063 1.83885,2.17219 0.99014,1.55157 1.27304,2.79282 0.35362,1.24126 0.63652,4.55128 0.35363,3.31001 0.42435,6.51658 0.0707,3.20657 0.14145,9.51629 0,4.34438 2.26319,6.20628 v 2.79282 h -11.38667 q -0.99015,-2.68939 -1.34377,-5.1719 -0.2829,-2.48251 -0.2829,-7.75784 z m 1.69739,-39.92704 q 0,-5.79253 -1.83884,-7.6544 -1.83884,-1.96533 -5.65797,-1.96533 h -12.80117 v 19.65321 h 12.80117 q 3.74841,0 5.58725,-1.96532 1.90956,-1.96532 1.90956,-8.06816 z"
       id="text1-7-8"
       style="font-weight:600;font-size:266.667px;font-family:FreeSans;-inkscape-font-specification:'FreeSans Semi-Bold';letter-spacing:0px;white-space:pre;display:inline;fill:#ffffff;fill-opacity:1;stroke-width:2.88668;paint-order:stroke fill markers"
       aria-label="R" /><path
       d="m 415.60771,169.03131 -9.83555,1.70037 q -0.56205,-12.48291 -10.74887,-10.72181 -4.07473,0.70444 -6.46336,3.87617 -2.38864,3.06138 -2.38864,7.5858 0,4.41406 2.03736,6.26888 2.03737,1.74446 7.65768,2.53844 l 8.00895,1.04315 q 7.09567,0.98033 10.32735,5.71851 3.23168,4.62783 3.23168,14.11808 0,12.24903 -5.55005,20.16066 -5.55008,7.80131 -15.45588,9.51383 -9.83556,1.70036 -15.31537,-4.1941 -5.40955,-5.90657 -5.90133,-18.7327 l 10.25708,-1.77325 q 0.28102,6.46216 3.23168,9.37296 2.95067,2.91078 8.28997,1.98773 4.77727,-0.82589 7.51718,-4.16872 2.81015,-3.35497 2.81015,-8.43113 0,-4.85547 -2.17787,-7.12741 -2.17789,-2.27192 -7.44693,-2.90593 l -7.1659,-0.96818 q -7.79819,-0.96924 -11.10013,-5.36422 -3.30194,-4.39499 -3.30194,-13.77487 0,-11.80762 5.0583,-19.08249 5.12854,-7.39737 14.33181,-8.98843 2.66965,-0.46153 5.12854,-0.33486 2.52914,0.11452 5.33929,1.39433 2.81017,1.16945 4.84754,3.57601 2.03736,2.29623 3.37218,6.92094 1.40508,4.5022 1.40508,10.79224 z"
       id="text1-9-97"
       style="font-weight:600;font-size:266.667px;font-family:FreeSans;-inkscape-font-specification:'FreeSans Semi-Bold';letter-spacing:0px;white-space:pre;display:inline;fill:#ffffff;fill-opacity:1;stroke-width:2.97167;paint-order:stroke fill markers"
       aria-label="S" /><path
       d="m 411.75703,250.09995 v 3.66888 l -2.11667,0.7704 v -10.28699 l 4.54378,-1.6538 q 1.60866,-0.5855 2.45533,-0.0752 0.86078,0.50515 0.86078,2.05737 0,1.56633 -0.84667,2.80582 -0.84667,1.2395 -2.25778,1.7531 z m 0,-1.76389 1.97555,-0.71904 q 1.651,-0.60092 1.651,-2.13903 0,-0.79022 -0.40922,-1.02227 -0.39511,-0.2372 -1.24178,0.071 l -1.97555,0.71904 z"
       id="text8-3-3"
       style="font-weight:600;font-size:53.3333px;font-family:FreeSans;-inkscape-font-specification:'FreeSans Semi-Bold';letter-spacing:1px;white-space:pre;display:inline;fill:#000000;fill-opacity:1;stroke-width:3.33499;paint-order:stroke fill markers"
       aria-label="P" /><path
       d="m 425.17316,248.07501 -3.85233,0.62732 -0.69144,2.18694 -2.159,0.35158 3.65477,-10.88216 2.34245,-0.38145 3.55599,9.70791 -2.17311,0.35389 z m -0.57855,-1.66968 -1.34056,-3.80336 -1.34055,4.23996 z"
       id="text8-3-9-6"
       style="font-weight:600;font-size:53.3333px;font-family:FreeSans;-inkscape-font-specification:'FreeSans Semi-Bold';letter-spacing:1px;white-space:pre;display:inline;fill:#000000;fill-opacity:1;stroke-width:3.33499;paint-order:stroke fill markers"
       aria-label="A" /><path
       d="m 434.08786,240.27299 v 8.5231 l -2.11667,0.15076 v -8.5231 l -3.11855,0.2221 v -1.76389 l 8.24088,-0.58692 v 1.76389 z"
       id="text8-3-6-1"
       style="font-weight:600;font-size:53.3333px;font-family:FreeSans;-inkscape-font-specification:'FreeSans Semi-Bold';letter-spacing:1px;white-space:pre;display:inline;fill:#000000;fill-opacity:1;stroke-width:3.33499;paint-order:stroke fill markers"
       aria-label="T" /><path
       d="m 445.33087,241.01561 q -0.39512,-1.84855 -2.20134,-1.84855 -1.25589,0 -1.96144,0.95955 -0.70556,0.95955 -0.70556,2.667 0,1.67922 0.67734,2.62466 0.69144,0.94545 1.91911,0.94545 0.98777,0 1.58044,-0.53623 0.59267,-0.53622 0.69145,-1.52399 h 2.06022 q -0.0988,1.76388 -1.28411,2.8081 -1.18534,1.03011 -3.10445,1.03011 -2.14489,0 -3.40077,-1.43933 -1.25589,-1.45344 -1.25589,-3.93699 0,-2.49767 1.27,-3.95111 1.27,-1.45345 3.44311,-1.45345 1.82033,0 2.97744,0.97367 1.17122,0.97367 1.31233,2.68111 z"
       id="text8-3-92-2"
       style="font-weight:600;font-size:53.3333px;font-family:FreeSans;-inkscape-font-specification:'FreeSans Semi-Bold';letter-spacing:1px;white-space:pre;display:inline;fill:#000000;fill-opacity:1;stroke-width:3.33499;paint-order:stroke fill markers"
       aria-label="C" /><path
       d="m 455.54378,244.34995 -4.07811,-0.29046 v 4.67077 l -2.11666,-0.15076 v -10.28699 l 2.11666,0.15076 v 3.85233 l 4.064,0.28945 v -3.85233 l 2.13078,0.15177 v 10.28699 l -2.11667,-0.15076 z"
       id="text8-3-69-9"
       style="font-weight:600;font-size:53.3333px;font-family:FreeSans;-inkscape-font-specification:'FreeSans Semi-Bold';letter-spacing:1px;white-space:pre;display:inline;stroke-width:3.33499;paint-order:stroke fill markers"
       aria-label="H" /><path
       d="m 462.29948,245.75062 v 2.667 l 5.57389,0.90769 v 1.76388 l -7.69055,-1.25238 v -10.28699 l 7.43655,1.21101 v 1.76389 l -5.31989,-0.86632 v 2.32833 l 4.92478,0.80198 v 1.76389 z"
       id="text8-3-4-3"
       style="font-weight:600;font-size:53.3333px;font-family:FreeSans;-inkscape-font-specification:'FreeSans Semi-Bold';letter-spacing:1px;white-space:pre;display:inline;fill:#000000;fill-opacity:1;stroke-width:3.33499;paint-order:stroke fill markers"
       aria-label="E" /><path
       d="m 475.6592,251.93305 q 0,-0.42334 0.0141,-0.6581 0.0141,-0.23476 0.0141,-0.4182 0,-0.64911 -0.31044,-1.04432 -0.31045,-0.40933 -1.00189,-0.661 l -2.42711,-0.88339 v 4.07811 l -2.11667,-0.77041 v -10.28699 l 5.51744,2.00819 q 0.79022,0.28761 1.35467,0.76117 0.57855,0.47868 0.86078,1.01886 0.29633,0.54529 0.42333,1.04307 0.127,0.48367 0.127,0.96345 0,1.86266 -1.73567,1.90827 0.381,0.29389 0.56445,0.45944 0.18344,0.15147 0.36689,0.42987 0.19755,0.28357 0.254,0.47345 0.0706,0.19502 0.127,0.66711 0.0705,0.47721 0.0847,0.91983 0.0141,0.44257 0.0282,1.30848 0,0.59266 0.45156,1.01102 v 0.381 l -2.27189,-0.8269 q -0.19755,-0.4388 -0.26811,-0.80314 -0.0564,-0.3592 -0.0564,-1.07886 z m 0.33866,-5.32363 q 0,-0.79022 -0.36689,-1.17776 -0.36688,-0.40164 -1.12888,-0.67898 l -2.55411,-0.92962 v 2.68111 l 2.55411,0.92962 q 0.74789,0.27221 1.11477,0.13763 0.381,-0.12944 0.381,-0.962 z"
       id="text8-3-8-1"
       style="font-weight:600;font-size:53.3333px;font-family:FreeSans;-inkscape-font-specification:'FreeSans Semi-Bold';letter-spacing:1px;white-space:pre;display:inline;fill:#000000;fill-opacity:1;stroke-width:3.33499;paint-order:stroke fill markers"
       aria-label="R" /><text
       xml:space="preserve"
       transform="matrix(0.26478561,0,0,0.19622638,24.628581,122.9111)"
       id="text2-9-3"
       style="font-style:normal;font-variant:normal;font-weight:600;font-stretch:normal;font-size:42.6667px;font-family:Conthrax;-inkscape-font-specification:'Conthrax Semi-Bold';letter-spacing:14px;writing-mode:lr-tb;direction:ltr;white-space:pre;shape-inside:url(#rect4-2-8);display:inline;fill:#ffffff;fill-opacity:1;stroke:#ffffff;stroke-width:11.6074;stroke-dasharray:none;stroke-opacity:1;paint-order:stroke fill markers;filter:url(#filter1)"><tspan
         x="1309.5625"
         y="38.289078"
         id="tspan3">SEGA RALLY 2</tspan></text><text
       xml:space="preserve"
       transform="matrix(0.26478561,0,0,0.19622638,24.628569,122.9111)"
       id="text2-9"
       style="font-style:normal;font-variant:normal;font-weight:600;font-stretch:normal;font-size:42.6667px;font-family:Conthrax;-inkscape-font-specification:'Conthrax Semi-Bold';letter-spacing:14px;writing-mode:lr-tb;direction:ltr;white-space:pre;shape-inside:url(#rect4-2);display:inline;fill:#000000;stroke:#000000;stroke-width:3;stroke-dasharray:none;stroke-opacity:1;paint-order:stroke fill markers"><tspan
         x="1309.5625"
         y="38.289078"
         id="tspan4">SEGA RALLY 2</tspan></text></g></svg>
